<svg width="100%" viewBox="0 0 680 780" xmlns="http://www.w3.org/2000/svg"><defs><marker id="arrow" viewBox="0 0 10 10" refX="8" refY="5" markerWidth="6" markerHeight="6" orient="auto-start-reverse"><path d="M2 1L8 5L2 9" fill="none" stroke="context-stroke" stroke-width="1.5" stroke-linecap="round" stroke-linejoin="round"/></marker></defs><text x="340" y="28" text-anchor="middle" style="font-family:sans-serif;font-size:14px;font-weight:500;fill:#1a1a1a">FIG. 6 — BRUCETRON: phase defect lifecycle</text><text x="340" y="46" text-anchor="middle" style="font-family:sans-serif;font-size:12px;fill:#555">Persistent phase residue at segment boundaries — Stephen Burdick Sr.</text><rect x="60" y="70" width="560" height="40" fill="none" stroke="#333" stroke-width="1"/><rect x="60" y="70" width="56" height="40" fill="#eee" stroke="#333" stroke-width="0.5"/><text x="88" y="94" text-anchor="middle" style="font-family:sans-serif;font-size:12px;fill:#555">Transit</text><text x="88" y="80" text-anchor="middle" style="font-family:sans-serif;font-size:12px;fill:#555">5 steps</text><rect x="116" y="70" width="392" height="40" fill="#f8f8f8" stroke="#333" stroke-width="0.5"/><text x="312" y="94" text-anchor="middle" style="font-family:sans-serif;font-size:12px;fill:#555">Arc (sampling + scooping)</text><text x="312" y="80" text-anchor="middle" style="font-family:sans-serif;font-size:12px;fill:#555">35 steps</text><rect x="508" y="70" width="112" height="40" fill="#eee" stroke="#333" stroke-width="0.5"/><text x="564" y="94" text-anchor="middle" style="font-family:sans-serif;font-size:12px;fill:#555">Fall</text><text x="564" y="80" text-anchor="middle" style="font-family:sans-serif;font-size:12px;fill:#555">10 steps</text><line x1="116" y1="65" x2="116" y2="115" stroke="#333" stroke-width="2"/><text x="116" y="130" text-anchor="middle" style="font-family:sans-serif;font-size:14px;font-weight:500;fill:#1a1a1a">B1</text><text x="116" y="144" text-anchor="middle" style="font-family:sans-serif;font-size:12px;fill:#555">Transit → Arc</text><line x1="508" y1="65" x2="508" y2="115" stroke="#333" stroke-width="2"/><text x="508" y="130" text-anchor="middle" style="font-family:sans-serif;font-size:14px;font-weight:500;fill:#1a1a1a">B2</text><text x="508" y="144" text-anchor="middle" style="font-family:sans-serif;font-size:12px;fill:#555">Arc → Fall</text><text x="340" y="178" text-anchor="middle" style="font-family:sans-serif;font-size:14px;font-weight:500;fill:#1a1a1a">Phase discontinuity at boundaries</text><path d="M60 230 L110 215 L116 215" fill="none" stroke="#333" stroke-width="1.5"/><path d="M116 215 L120 195 L140 260 L160 210 L200 220" fill="none" stroke="#333" stroke-width="1.5" stroke-dasharray="4 3"/><path d="M200 220 C280 240, 360 200, 460 230 Q490 238, 508 235" fill="none" stroke="#333" stroke-width="1"/><path d="M508 235 L512 205 L520 260 L528 220" fill="none" stroke="#333" stroke-width="1.5" stroke-dasharray="4 3"/><path d="M528 220 L580 240 L620 250" fill="none" stroke="#333" stroke-width="1"/><text x="55" y="195" text-anchor="end" style="font-family:sans-serif;font-size:12px;fill:#555">Δφ₁ = velocity jump</text><text x="625" y="179" style="font-family:sans-serif;font-size:12px;fill:#555">Δφ₂ = velocity jump</text><rect x="120" y="280" width="440" height="50" rx="8" fill="none" stroke="#333" stroke-width="1" stroke-dasharray="6 3"/><text x="340" y="300" text-anchor="middle" style="font-family:sans-serif;font-size:14px;font-weight:500;fill:#1a1a1a">O_i(t+1) = α · O_i(t) + β · Δφ_i(t)</text><text x="340" y="318" text-anchor="middle" style="font-family:sans-serif;font-size:12px;fill:#555">Brucetron state equation — phase-retained transport residue</text><text x="340" y="360" text-anchor="middle" style="font-family:sans-serif;font-size:14px;font-weight:500;fill:#1a1a1a">Brucetron accumulation over cycles</text><rect x="60" y="380" width="260" height="180" fill="none" stroke="#333" stroke-width="0.5"/><rect x="80" y="530" width="30" height="20" fill="#ddd" stroke="#333" stroke-width="0.5"/><text x="95" y="544" text-anchor="middle" style="font-family:sans-serif;font-size:12px;fill:#555">O₁</text><rect x="130" y="500" width="30" height="50" fill="#ccc" stroke="#333" stroke-width="0.5"/><text x="145" y="530" text-anchor="middle" style="font-family:sans-serif;font-size:12px;fill:#555">O₁₀</text><rect x="180" y="460" width="30" height="90" fill="#bbb" stroke="#333" stroke-width="0.5"/><text x="195" y="510" text-anchor="middle" style="font-family:sans-serif;font-size:12px;fill:#555">O₅₀</text><rect x="230" y="440" width="30" height="110" fill="#aaa" stroke="#333" stroke-width="0.5"/><text x="245" y="500" text-anchor="middle" style="font-family:sans-serif;font-size:12px;fill:#555">O₁₀₀</text><line x1="60" y1="555" x2="320" y2="555" stroke="#333" stroke-width="0.5"/><text x="190" y="572" text-anchor="middle" style="font-family:sans-serif;font-size:12px;fill:#555">Cycle number →</text><rect x="360" y="380" width="280" height="180" fill="none" stroke="#333" stroke-width="0.5"/><text x="370" y="396" style="font-family:sans-serif;font-size:12px;fill:#555">Growth bound</text><path d="M380 540 Q400 510, 440 495 Q500 475, 560 468 Q600 464, 620 462" fill="none" stroke="#333" stroke-width="1.5"/><path d="M380 540 L620 420" fill="none" stroke="#333" stroke-width="0.5" stroke-dasharray="4 3"/><text x="600" y="458" text-anchor="end" style="font-family:sans-serif;font-size:12px;fill:#555">E ~ t^0.14</text><text x="625" y="418" style="font-family:sans-serif;font-size:12px;fill:#555">linear</text><line x1="360" y1="555" x2="640" y2="555" stroke="#333" stroke-width="0.5"/><text x="500" y="572" text-anchor="middle" style="font-family:sans-serif;font-size:12px;fill:#555">Steps →</text><rect x="60" y="600" width="560" height="140" rx="8" fill="none" stroke="#333" stroke-width="0.5" stroke-dasharray="6 3"/><text x="80" y="624" style="font-family:sans-serif;font-size:14px;font-weight:500;fill:#1a1a1a">Brucetron properties</text><text x="80" y="648" style="font-family:sans-serif;font-size:12px;fill:#555">1. Phase-retained across cycle boundaries (not bound to grid)</text><text x="80" y="668" style="font-family:sans-serif;font-size:12px;fill:#555">2. Accumulates at B1 (Transit→Arc) and B2 (Arc→Fall)</text><text x="80" y="688" style="font-family:sans-serif;font-size:12px;fill:#555">3. Growth is sublinear: E ~ t^0.14 (saturating, favorable)</text><text x="80" y="708" style="font-family:sans-serif;font-size:12px;fill:#555">4. Debt rate constant: 3.7645 units/step (predictable)</text><text x="80" y="728" style="font-family:sans-serif;font-size:12px;fill:#555">5. The f/2 subharmonic at 0.010 = craft heartbeat (orientation)</text><text x="340" y="762" text-anchor="middle" style="font-family:sans-serif;font-size:12px;fill:#555">Stephen Justin Burdick Sr. — Emerald Entities LLC — GIBUSH Systems</text></svg>
