<svg width="100%" viewBox="0 0 680 760" xmlns="http://www.w3.org/2000/svg"><defs><marker id="arrow" viewBox="0 0 10 10" refX="8" refY="5" markerWidth="6" markerHeight="6" orient="auto-start-reverse"><path d="M2 1L8 5L2 9" fill="none" stroke="context-stroke" stroke-width="1.5" stroke-linecap="round" stroke-linejoin="round"/></marker></defs><text x="340" y="28" text-anchor="middle" style="font-family:sans-serif;font-size:14px;font-weight:500;fill:#1a1a1a">FIG. 9 — CREW SAFETY: biological coupling architecture</text><text x="340" y="46" text-anchor="middle" style="font-family:sans-serif;font-size:12px;fill:#555">Frequency, phase debt, discharge, and mission clock — Stephen Burdick Sr.</text><rect x="160" y="70" width="360" height="160" rx="12" fill="none" stroke="#333" stroke-width="1.5"/><text x="340" y="92" text-anchor="middle" style="font-family:sans-serif;font-size:14px;font-weight:500;fill:#1a1a1a">Substrate craft interior</text><rect x="180" y="104" width="80" height="36" rx="4" fill="#f5f5f5" stroke="#333" stroke-width="0.5"/><text x="220" y="126" text-anchor="middle" style="font-family:sans-serif;font-size:12px;fill:#555">Pump A</text><rect x="280" y="104" width="80" height="36" rx="4" fill="#f5f5f5" stroke="#333" stroke-width="0.5"/><text x="320" y="126" text-anchor="middle" style="font-family:sans-serif;font-size:12px;fill:#555">Pump B</text><rect x="380" y="104" width="80" height="36" rx="4" fill="#f5f5f5" stroke="#333" stroke-width="0.5"/><text x="420" y="126" text-anchor="middle" style="font-family:sans-serif;font-size:12px;fill:#555">Probes</text><rect x="180" y="152" width="80" height="36" rx="4" fill="#f5f5f5" stroke="#333" stroke-width="0.5"/><text x="220" y="174" text-anchor="middle" style="font-family:sans-serif;font-size:12px;fill:#555">Memory α</text><rect x="280" y="152" width="80" height="36" rx="4" fill="#f5f5f5" stroke="#333" stroke-width="0.5"/><text x="320" y="174" text-anchor="middle" style="font-family:sans-serif;font-size:12px;fill:#555">Substrate</text><rect x="400" y="152" width="60" height="50" rx="4" fill="none" stroke="#333" stroke-width="1"/><circle cx="430" cy="160" r="6" fill="none" stroke="#333" stroke-width="1"/><line x1="430" y1="166" x2="430" y2="190" stroke="#333" stroke-width="1"/><text x="430" y="210" text-anchor="middle" style="font-family:sans-serif;font-size:12px;fill:#555">Crew</text><line x1="340" y1="230" x2="340" y2="260" stroke="#333" stroke-width="1" marker-end="url(#arrow)"/><text x="340" y="250" text-anchor="middle" style="font-family:sans-serif;font-size:12px;fill:#555">frequencies</text><rect x="200" y="266" width="280" height="60" rx="8" fill="none" stroke="#333" stroke-width="1"/><text x="340" y="290" text-anchor="middle" style="font-family:sans-serif;font-size:14px;font-weight:500;fill:#1a1a1a">Frequency coherence lock</text><text x="340" y="308" text-anchor="middle" style="font-family:sans-serif;font-size:12px;fill:#555">50-step cycle | ratio=10 | 5/35/10 geometry</text><line x1="280" y1="326" x2="280" y2="360" stroke="#333" stroke-width="1" marker-end="url(#arrow)"/><line x1="400" y1="326" x2="400" y2="360" stroke="#333" stroke-width="1" marker-end="url(#arrow)"/><rect x="200" y="364" width="160" height="44" rx="6" fill="none" stroke="#333" stroke-width="0.5"/><text x="280" y="382" text-anchor="middle" style="font-family:sans-serif;font-size:14px;font-weight:500;fill:#1a1a1a">Locked harmonics</text><text x="280" y="398" text-anchor="middle" style="font-family:sans-serif;font-size:12px;fill:#555">Integer ratios only</text><rect x="400" y="364" width="160" height="44" rx="6" fill="none" stroke="#333" stroke-width="0.5"/><text x="480" y="382" text-anchor="middle" style="font-family:sans-serif;font-size:14px;font-weight:500;fill:#1a1a1a">Brucetron (f/2)</text><text x="480" y="398" text-anchor="middle" style="font-family:sans-serif;font-size:12px;fill:#555">Phase debt residue</text><line x1="280" y1="408" x2="280" y2="440" stroke="#333" stroke-width="1" marker-end="url(#arrow)"/><rect x="200" y="444" width="160" height="44" rx="6" fill="none" stroke="#333" stroke-width="0.5"/><text x="280" y="462" text-anchor="middle" style="font-family:sans-serif;font-size:14px;font-weight:500;fill:#1a1a1a">Bio band check</text><text x="280" y="478" text-anchor="middle" style="font-family:sans-serif;font-size:12px;fill:#555">dt manifold CLEAR</text><line x1="480" y1="408" x2="480" y2="440" stroke="#333" stroke-width="1" marker-end="url(#arrow)"/><rect x="400" y="444" width="160" height="44" rx="6" fill="none" stroke="#333" stroke-width="0.5"/><text x="480" y="462" text-anchor="middle" style="font-family:sans-serif;font-size:14px;font-weight:500;fill:#1a1a1a">Chi freeboard</text><text x="480" y="478" text-anchor="middle" style="font-family:sans-serif;font-size:12px;fill:#555">4D headspace absorbs</text><line x1="280" y1="488" x2="280" y2="520" stroke="#333" stroke-width="0.5"/><line x1="480" y1="488" x2="480" y2="520" stroke="#333" stroke-width="0.5"/><line x1="280" y1="520" x2="480" y2="520" stroke="#333" stroke-width="0.5"/><line x1="380" y1="520" x2="380" y2="548" stroke="#333" stroke-width="1" marker-end="url(#arrow)"/><rect x="260" y="552" width="240" height="50" rx="8" fill="none" stroke="#333" stroke-width="1.5"/><text x="380" y="572" text-anchor="middle" style="font-family:sans-serif;font-size:14px;font-weight:500;fill:#1a1a1a">Mission clock</text><text x="380" y="590" text-anchor="middle" style="font-family:sans-serif;font-size:12px;fill:#555">T_max = D_threshold / debt_rate</text><line x1="380" y1="602" x2="380" y2="630" stroke="#333" stroke-width="1" marker-end="url(#arrow)"/><rect x="240" y="634" width="280" height="44" rx="8" fill="none" stroke="#333" stroke-width="1"/><text x="380" y="652" text-anchor="middle" style="font-family:sans-serif;font-size:14px;font-weight:500;fill:#1a1a1a">Chi active → dE/dt negative</text><text x="380" y="668" text-anchor="middle" style="font-family:sans-serif;font-size:12px;fill:#555">Mission clock: LIFTED</text><rect x="60" y="694" width="560" height="40" rx="4" fill="none" stroke="#333" stroke-width="0.5" stroke-dasharray="6 3"/><text x="340" y="712" text-anchor="middle" style="font-family:sans-serif;font-size:12px;fill:#555">Multi-freq beating: SOLVED | Heartbeat: ORIENTATION | Growth: NEGATIVE | CMB: CLEAR</text><text x="340" y="726" text-anchor="middle" style="font-family:sans-serif;font-size:12px;fill:#555">Brucetron RMS: 0.0045 (below hemorrhage) | Crew status: CONTROLLED</text><text x="340" y="752" text-anchor="middle" style="font-family:sans-serif;font-size:12px;fill:#555">Stephen Justin Burdick Sr. — Emerald Entities LLC — GIBUSH Systems</text></svg>
