<svg width="100%" viewBox="0 0 680 800" xmlns="http://www.w3.org/2000/svg">
<defs><marker id="arrow" viewBox="0 0 10 10" refX="8" refY="5" markerWidth="6" markerHeight="6" orient="auto-start-reverse"><path d="M2 1L8 5L2 9" fill="none" stroke="context-stroke" stroke-width="1.5" stroke-linecap="round" stroke-linejoin="round"/></marker></defs>
<text x="340" y="28" text-anchor="middle" style="font-family:sans-serif;font-size:14px;font-weight:500;fill:#1a1a1a">FIG. 1 v2 — SCIENCE EFFECTS: CRAFT IN THREE-SPACE FIELD</text>
<text x="340" y="46" text-anchor="middle" style="font-family:sans-serif;font-size:12px;fill:#555">Cross-section: σ transport + φ phase debt + Γ fractal frontier</text>
<!-- Lambda field background -->
<rect x="40" y="64" width="600" height="340" fill="none" stroke="#999" stroke-width="0.5" stroke-dasharray="4 4"/>
<text x="50" y="82" style="font-family:sans-serif;font-size:12px;fill:#555">λ substrate field (void baseline λ₀ = 0.10)</text>
<!-- Lambda field lines -->
<line x1="50" y1="100" x2="630" y2="100" stroke="#999" stroke-width="0.3" opacity="0.3"/>
<line x1="50" y1="120" x2="630" y2="120" stroke="#999" stroke-width="0.3" opacity="0.3"/>
<line x1="50" y1="140" x2="630" y2="140" stroke="#999" stroke-width="0.3" opacity="0.3"/>
<line x1="50" y1="160" x2="240" y2="160" stroke="#999" stroke-width="0.3" opacity="0.3"/>
<line x1="460" y1="160" x2="630" y2="160" stroke="#999" stroke-width="0.3" opacity="0.3"/>
<line x1="50" y1="180" x2="220" y2="180" stroke="#999" stroke-width="0.3" opacity="0.2"/>
<line x1="480" y1="180" x2="630" y2="180" stroke="#999" stroke-width="0.3" opacity="0.2"/>
<line x1="50" y1="200" x2="210" y2="200" stroke="#999" stroke-width="0.3" opacity="0.15"/>
<line x1="490" y1="200" x2="630" y2="200" stroke="#999" stroke-width="0.3" opacity="0.15"/>
<line x1="50" y1="260" x2="220" y2="260" stroke="#999" stroke-width="0.3" opacity="0.2"/>
<line x1="480" y1="260" x2="630" y2="260" stroke="#999" stroke-width="0.3" opacity="0.2"/>
<line x1="50" y1="300" x2="630" y2="300" stroke="#999" stroke-width="0.3" opacity="0.3"/>
<line x1="50" y1="340" x2="630" y2="340" stroke="#999" stroke-width="0.3" opacity="0.3"/>
<line x1="50" y1="380" x2="630" y2="380" stroke="#999" stroke-width="0.3" opacity="0.3"/>
<!-- Fractal frontier (probe-written boundary, D_f=1.59) -->
<path d="M250 130 Q260 125, 270 132 Q285 120, 300 128 Q310 115, 330 125 Q345 118, 360 122 Q380 110, 400 120 Q415 115, 430 125 Q440 130, 450 128" fill="none" stroke="#333" stroke-width="1" stroke-dasharray="3 2"/>
<path d="M245 310 Q260 318, 280 312 Q300 320, 320 315 Q340 322, 355 318 Q370 325, 390 320 Q410 328, 425 322 Q440 315, 455 318" fill="none" stroke="#333" stroke-width="1" stroke-dasharray="3 2"/>
<text x="460" y="125" style="font-family:sans-serif;font-size:11px;fill:#555">Γ fractal frontier (D_f = 1.59)</text>
<text x="460" y="320" style="font-family:sans-serif;font-size:11px;fill:#555">Probe-written boundary</text>
<!-- Craft body (dumbbell) -->
<ellipse cx="290" cy="220" rx="20" ry="15" fill="none" stroke="#333" stroke-width="1.5"/>
<text x="290" y="224" text-anchor="middle" style="font-family:sans-serif;font-size:10px;fill:#333">B</text>
<rect x="310" y="213" width="80" height="14" rx="4" fill="none" stroke="#333" stroke-width="1"/>
<text x="350" y="224" text-anchor="middle" style="font-family:sans-serif;font-size:9px;fill:#555">tunnel</text>
<ellipse cx="410" cy="220" rx="15" ry="12" fill="none" stroke="#333" stroke-width="1.5"/>
<text x="410" y="224" text-anchor="middle" style="font-family:sans-serif;font-size:10px;fill:#333">A</text>
<!-- Sigma field (concentrated at craft) -->
<ellipse cx="350" cy="220" rx="70" ry="45" fill="#eee" fill-opacity="0.5" stroke="#333" stroke-width="0.5" stroke-dasharray="2 3"/>
<text x="350" y="275" text-anchor="middle" style="font-family:sans-serif;font-size:11px;fill:#555">σ field (high at craft, ∇σ→0 at edge)</text>
<!-- Phi field (concentrated at B1, B2) -->
<rect x="308" y="195" width="4" height="50" rx="1" fill="#888" stroke="#333" stroke-width="0.5"/>
<text x="312" y="192" style="font-family:sans-serif;font-size:10px;fill:#333">B1</text>
<rect x="388" y="200" width="4" height="40" rx="1" fill="#999" stroke="#333" stroke-width="0.5"/>
<text x="392" y="197" style="font-family:sans-serif;font-size:10px;fill:#333">B2</text>
<text x="350" y="290" text-anchor="middle" style="font-family:sans-serif;font-size:11px;fill:#555">φ phase debt (Brucetron at B1, B2)</text>
<!-- Probe arcs (irregular polygonals) -->
<path d="M410 220 Q430 180, 420 150 Q410 140, 390 145 Q370 150, 360 170" fill="none" stroke="#333" stroke-width="0.7"/>
<path d="M410 220 Q440 200, 450 170 Q445 145, 420 135 Q400 138, 385 155" fill="none" stroke="#333" stroke-width="0.5"/>
<circle cx="420" cy="150" r="2" fill="#333"/>
<circle cx="445" cy="170" r="2" fill="#333"/>
<text x="470" y="155" style="font-family:sans-serif;font-size:10px;fill:#555">probe arcs</text>
<!-- Direction arrow -->
<line x1="420" y1="220" x2="480" y2="220" stroke="#333" stroke-width="1" marker-end="url(#arrow)"/>
<text x="490" y="224" style="font-family:sans-serif;font-size:11px;fill:#555">direction of travel</text>
<!-- Lambda grave (galaxy center reference) -->
<ellipse cx="350" cy="220" rx="120" ry="90" fill="none" stroke="#333" stroke-width="0.5" stroke-dasharray="8 4"/>
<text x="50" y="200" style="font-family:sans-serif;font-size:11px;fill:#555">λ grave (lower λ</text>
<text x="50" y="214" style="font-family:sans-serif;font-size:11px;fill:#555">= stronger field)</text>
<!-- Legend -->
<rect x="40" y="420" width="600" height="160" rx="8" fill="none" stroke="#333" stroke-width="0.5" stroke-dasharray="6 3"/>
<text x="60" y="444" style="font-family:sans-serif;font-size:14px;font-weight:500;fill:#1a1a1a">v2 refinements (v17-v18 knowledge)</text>
<text x="60" y="466" style="font-family:sans-serif;font-size:12px;fill:#555">1. Three coupled fields shown: σ (transport), φ (phase debt), Γ (probe frontier)</text>
<text x="60" y="486" style="font-family:sans-serif;font-size:12px;fill:#555">2. Fractal frontier (D_f = 1.59) written by irregular probe arc trajectories</text>
<text x="60" y="506" style="font-family:sans-serif;font-size:12px;fill:#555">3. Brucetron accumulation at B1 (transit→arc) and B2 (arc→fall) boundaries</text>
<text x="60" y="526" style="font-family:sans-serif;font-size:12px;fill:#555">4. φ field concentrated where σ gradient is steepest (near craft, not frontier)</text>
<text x="60" y="546" style="font-family:sans-serif;font-size:12px;fill:#555">5. Chi freeboard (4D headspace) absorbs overflow above σ fill line</text>
<text x="60" y="566" style="font-family:sans-serif;font-size:12px;fill:#555">6. Craft surrounded by its own observation boundary — silence has topology</text>
<!-- Frequency architecture summary -->
<rect x="40" y="596" width="600" height="80" rx="8" fill="none" stroke="#333" stroke-width="0.5" stroke-dasharray="6 3"/>
<text x="60" y="618" style="font-family:sans-serif;font-size:14px;font-weight:500;fill:#1a1a1a">Frequency architecture (v17)</text>
<text x="60" y="638" style="font-family:sans-serif;font-size:12px;fill:#555">50-step probe cycle (5/35/10) | pump-probe ratio = 10 (integer locked)</text>
<text x="60" y="658" style="font-family:sans-serif;font-size:12px;fill:#555">f/2 heartbeat at 0.010 (crew orientation) | CMB dt CLEAR of all bio bands</text>
<!-- Chi freeboard zone -->
<rect x="40" y="692" width="600" height="60" rx="8" fill="none" stroke="#333" stroke-width="0.5" stroke-dasharray="6 3"/>
<text x="60" y="714" style="font-family:sans-serif;font-size:14px;font-weight:500;fill:#1a1a1a">Chi freeboard (v17) + Phase projection (v18)</text>
<text x="60" y="734" style="font-family:sans-serif;font-size:12px;fill:#555">Chi tank: 100.7% Brucetron reduction (negative growth) | Phase projection: 91.6%</text>
<text x="340" y="784" text-anchor="middle" style="font-family:sans-serif;font-size:12px;fill:#555">Stephen Justin Burdick Sr. — Emerald Entities LLC — GIBUSH Systems</text>
</svg>
