<svg width="100%" viewBox="0 0 680 760" xmlns="http://www.w3.org/2000/svg"><defs><marker id="arrow" viewBox="0 0 10 10" refX="8" refY="5" markerWidth="6" markerHeight="6" orient="auto-start-reverse"><path d="M2 1L8 5L2 9" fill="none" stroke="context-stroke" stroke-width="1.5" stroke-linecap="round" stroke-linejoin="round"/></marker></defs><text x="340" y="28" text-anchor="middle" style="font-family:sans-serif;font-size:14px;font-weight:500;fill:#1a1a1a">FIG. 7 — CHI FREEBOARD: 4D pressure relief</text><text x="340" y="46" text-anchor="middle" style="font-family:sans-serif;font-size:12px;fill:#555">Kraft mill freeboard applied to substrate transport — Stephen Burdick Sr.</text><rect x="80" y="70" width="520" height="350" fill="none" stroke="#333" stroke-width="1.5"/><text x="90" y="90" style="font-family:sans-serif;font-size:14px;font-weight:500;fill:#1a1a1a">Tesseract cell</text><line x1="80" y1="130" x2="600" y2="130" stroke="#333" stroke-width="1" stroke-dasharray="8 4"/><text x="610" y="134" style="font-family:sans-serif;font-size:12px;fill:#555">Cell ceiling (4D)</text><rect x="80" y="130" width="520" height="80" fill="#f0f0f0" stroke="none"/><text x="340" y="165" text-anchor="middle" style="font-family:sans-serif;font-size:14px;font-weight:500;fill:#1a1a1a">χ field (4D headspace)</text><text x="340" y="182" text-anchor="middle" style="font-family:sans-serif;font-size:12px;fill:#555">Phase debt stored here — cannot vibrate tissue</text><line x1="80" y1="210" x2="600" y2="210" stroke="#333" stroke-width="2"/><text x="610" y="214" style="font-family:sans-serif;font-size:12px;fill:#555">Fill line (adaptive)</text><text x="610" y="228" style="font-family:sans-serif;font-size:12px;fill:#555">μ + 1.5σ local</text><path d="M80 280 Q140 240, 200 270 Q260 310, 320 260 Q380 220, 420 290 Q460 330, 520 250 Q560 230, 600 280" fill="none" stroke="#333" stroke-width="2"/><text x="340" y="340" text-anchor="middle" style="font-family:sans-serif;font-size:14px;font-weight:500;fill:#1a1a1a">σ field (3D transport surface)</text><line x1="320" y1="250" x2="320" y2="215" stroke="#333" stroke-width="1" marker-end="url(#arrow)"/><text x="280" y="238" style="font-family:sans-serif;font-size:12px;fill:#555">SPILL</text><line x1="200" y1="215" x2="200" y2="265" stroke="#333" stroke-width="1" marker-end="url(#arrow)"/><text x="160" y="245" style="font-family:sans-serif;font-size:12px;fill:#555">DRAIN</text><line x1="80" y1="380" x2="600" y2="380" stroke="#333" stroke-width="0.5" stroke-dasharray="4 3"/><text x="610" y="384" style="font-family:sans-serif;font-size:12px;fill:#555">Cell floor</text><line x1="80" y1="350" x2="600" y2="350" stroke="#333" stroke-width="0.5" stroke-dasharray="2 4"/><text x="610" y="354" style="font-family:sans-serif;font-size:12px;fill:#555">Equilibrium (80%)</text><text x="180" y="440" text-anchor="middle" style="font-family:sans-serif;font-size:14px;font-weight:500;fill:#1a1a1a">Run A: no freeboard</text><rect x="80" y="450" width="200" height="120" rx="6" fill="none" stroke="#333" stroke-width="0.5"/><rect x="100" y="540" width="20" height="20" fill="#ddd" stroke="#333" stroke-width="0.5"/><rect x="130" y="520" width="20" height="40" fill="#ccc" stroke="#333" stroke-width="0.5"/><rect x="160" y="500" width="20" height="60" fill="#bbb" stroke="#333" stroke-width="0.5"/><rect x="190" y="480" width="20" height="80" fill="#aaa" stroke="#333" stroke-width="0.5"/><rect x="220" y="465" width="20" height="95" fill="#999" stroke="#333" stroke-width="0.5"/><text x="180" y="580" text-anchor="middle" style="font-family:sans-serif;font-size:12px;fill:#555">Brucetron GROWING ↑</text><text x="180" y="594" text-anchor="middle" style="font-family:sans-serif;font-size:12px;fill:#555">dE/dt = +0.000875</text><text x="500" y="440" text-anchor="middle" style="font-family:sans-serif;font-size:14px;font-weight:500;fill:#1a1a1a">Run B: chi freeboard</text><rect x="400" y="450" width="200" height="120" rx="6" fill="none" stroke="#333" stroke-width="0.5"/><rect x="420" y="480" width="20" height="80" fill="#aaa" stroke="#333" stroke-width="0.5"/><rect x="450" y="490" width="20" height="70" fill="#bbb" stroke="#333" stroke-width="0.5"/><rect x="480" y="505" width="20" height="55" fill="#ccc" stroke="#333" stroke-width="0.5"/><rect x="510" y="520" width="20" height="40" fill="#ddd" stroke="#333" stroke-width="0.5"/><rect x="540" y="535" width="20" height="25" fill="#eee" stroke="#333" stroke-width="0.5"/><text x="500" y="580" text-anchor="middle" style="font-family:sans-serif;font-size:12px;fill:#555">Brucetron DECAYING ↓</text><text x="500" y="594" text-anchor="middle" style="font-family:sans-serif;font-size:12px;fill:#555">dE/dt = -0.000006</text><line x1="290" y1="510" x2="390" y2="510" stroke="#333" stroke-width="1" marker-end="url(#arrow)"/><text x="340" y="504" text-anchor="middle" style="font-family:sans-serif;font-size:12px;fill:#555">Chi absorbs</text><text x="340" y="518" text-anchor="middle" style="font-family:sans-serif;font-size:12px;fill:#555">phase debt</text><rect x="120" y="620" width="440" height="40" rx="8" fill="none" stroke="#333" stroke-width="1" stroke-dasharray="6 3"/><text x="340" y="645" text-anchor="middle" style="font-family:sans-serif;font-size:14px;font-weight:500;fill:#1a1a1a">E_total = Σ(σ) + Σ(χ) = conserved per cell</text><rect x="80" y="680" width="520" height="50" rx="6" fill="none" stroke="#333" stroke-width="0.5" stroke-dasharray="6 3"/><text x="340" y="700" text-anchor="middle" style="font-family:sans-serif;font-size:12px;fill:#555">Growth rate reduction: 100.7% | Late energy reduction: 81.2%</text><text x="340" y="716" text-anchor="middle" style="font-family:sans-serif;font-size:12px;fill:#555">Mission clock constraint: LIFTED | Crew biological safety: CONTROLLED</text><text x="340" y="748" text-anchor="middle" style="font-family:sans-serif;font-size:12px;fill:#555">Stephen Justin Burdick Sr. — Emerald Entities LLC — GIBUSH Systems</text></svg>
