<svg width="100%" viewBox="0 0 680 820" xmlns="http://www.w3.org/2000/svg">
<defs><marker id="arrow" viewBox="0 0 10 10" refX="8" refY="5" markerWidth="6" markerHeight="6" orient="auto-start-reverse"><path d="M2 1L8 5L2 9" fill="none" stroke="context-stroke" stroke-width="1.5" stroke-linecap="round" stroke-linejoin="round"/></marker></defs>
<text x="340" y="28" text-anchor="middle" style="font-family:sans-serif;font-size:14px;font-weight:500;fill:#1a1a1a">FIG. 2 v2 — DRIVE SYSTEM: FREQUENCY-LOCKED PUMP ARCHITECTURE</text>
<text x="340" y="46" text-anchor="middle" style="font-family:sans-serif;font-size:12px;fill:#555">50-step cycle, ratio=10, 5/35/10 phase decorrelator — Stephen Burdick Sr.</text>
<!-- Craft top view -->
<rect x="60" y="70" width="560" height="200" rx="12" fill="none" stroke="#333" stroke-width="1"/>
<text x="80" y="90" style="font-family:sans-serif;font-size:14px;font-weight:500;fill:#1a1a1a">Craft plan view</text>
<!-- Pump B (aft, collector) -->
<ellipse cx="160" cy="170" rx="45" ry="35" fill="#f0f0f0" stroke="#333" stroke-width="1.5"/>
<text x="160" y="165" text-anchor="middle" style="font-family:sans-serif;font-size:14px;font-weight:500;fill:#1a1a1a">Pump B</text>
<text x="160" y="180" text-anchor="middle" style="font-family:sans-serif;font-size:11px;fill:#555">Collector (aft)</text>
<text x="160" y="194" text-anchor="middle" style="font-family:sans-serif;font-size:11px;fill:#555">ratio = 0.25</text>
<!-- Venturi tunnel -->
<path d="M205 155 L395 160" fill="none" stroke="#333" stroke-width="1.5"/>
<path d="M205 185 L395 180" fill="none" stroke="#333" stroke-width="1.5"/>
<text x="300" y="173" text-anchor="middle" style="font-family:sans-serif;font-size:11px;fill:#555">Venturi tunnel (12 probes cycle)</text>
<!-- Pump A (fore, ejector) -->
<ellipse cx="440" cy="170" rx="35" ry="28" fill="#f0f0f0" stroke="#333" stroke-width="1.5"/>
<text x="440" y="165" text-anchor="middle" style="font-family:sans-serif;font-size:14px;font-weight:500;fill:#1a1a1a">Pump A</text>
<text x="440" y="180" text-anchor="middle" style="font-family:sans-serif;font-size:11px;fill:#555">Ejector (fore)</text>
<text x="440" y="194" text-anchor="middle" style="font-family:sans-serif;font-size:11px;fill:#555">ratio = 1.0</text>
<!-- Direction -->
<line x1="490" y1="170" x2="570" y2="170" stroke="#333" stroke-width="1.5" marker-end="url(#arrow)"/>
<text x="530" y="160" text-anchor="middle" style="font-family:sans-serif;font-size:11px;fill:#555">travel</text>
<!-- Probe arcs from A -->
<path d="M475 170 Q510 130, 500 100 Q490 85, 470 90 Q450 100, 440 120" fill="none" stroke="#333" stroke-width="0.7"/>
<path d="M475 170 Q520 150, 520 120 Q515 95, 495 85 Q475 88, 460 105" fill="none" stroke="#333" stroke-width="0.5"/>
<path d="M475 170 Q510 200, 505 230 Q495 248, 475 245 Q455 240, 445 220" fill="none" stroke="#333" stroke-width="0.7"/>
<circle cx="500" cy="100" r="2" fill="#333"/>
<circle cx="515" cy="120" r="2" fill="#333"/>
<circle cx="505" cy="230" r="2" fill="#333"/>
<text x="540" y="100" style="font-family:sans-serif;font-size:10px;fill:#555">Alfven arcs</text>
<!-- 50-STEP CYCLE -->
<text x="340" y="298" text-anchor="middle" style="font-family:sans-serif;font-size:14px;font-weight:500;fill:#1a1a1a">50-step probe cycle (frequency locked)</text>
<rect x="60" y="306" width="560" height="50" fill="none" stroke="#333" stroke-width="1"/>
<rect x="60" y="306" width="56" height="50" fill="#eee" stroke="#333" stroke-width="0.5"/>
<text x="88" y="326" text-anchor="middle" style="font-family:sans-serif;font-size:11px;fill:#555">Transit</text>
<text x="88" y="342" text-anchor="middle" style="font-family:sans-serif;font-size:11px;fill:#555">5 steps</text>
<rect x="116" y="306" width="392" height="50" fill="#f8f8f8" stroke="#333" stroke-width="0.5"/>
<text x="312" y="326" text-anchor="middle" style="font-family:sans-serif;font-size:11px;fill:#555">Arc (sampling + scooping + fractal writing)</text>
<text x="312" y="342" text-anchor="middle" style="font-family:sans-serif;font-size:11px;fill:#555">35 steps — writes D_f = 1.59 boundary</text>
<rect x="508" y="306" width="112" height="50" fill="#eee" stroke="#333" stroke-width="0.5"/>
<text x="564" y="326" text-anchor="middle" style="font-family:sans-serif;font-size:11px;fill:#555">Fall + deposit</text>
<text x="564" y="342" text-anchor="middle" style="font-family:sans-serif;font-size:11px;fill:#555">10 steps</text>
<line x1="116" y1="302" x2="116" y2="360" stroke="#333" stroke-width="2"/>
<text x="116" y="376" text-anchor="middle" style="font-family:sans-serif;font-size:11px;fill:#555">B1 (Brucetron born)</text>
<line x1="508" y1="302" x2="508" y2="360" stroke="#333" stroke-width="2"/>
<text x="508" y="376" text-anchor="middle" style="font-family:sans-serif;font-size:11px;fill:#555">B2 (Brucetron born)</text>
<!-- FREQUENCY LOCK -->
<text x="340" y="410" text-anchor="middle" style="font-family:sans-serif;font-size:14px;font-weight:500;fill:#1a1a1a">Harmonic lock: pump / probe = 10 (integer)</text>
<rect x="60" y="420" width="260" height="100" fill="none" stroke="#333" stroke-width="0.5"/>
<line x1="70" y1="500" x2="300" y2="500" stroke="#333" stroke-width="0.5"/>
<line x1="70" y1="490" x2="300" y2="490" stroke="#333" stroke-width="1" stroke-dasharray="6 4"/>
<text x="310" y="492" style="font-family:sans-serif;font-size:11px;fill:#555">0.010 heartbeat</text>
<line x1="70" y1="478" x2="300" y2="478" stroke="#333" stroke-width="1.5"/>
<text x="310" y="480" style="font-family:sans-serif;font-size:11px;fill:#555">0.020 f₀ probe</text>
<line x1="70" y1="460" x2="300" y2="460" stroke="#333" stroke-width="1"/>
<text x="310" y="462" style="font-family:sans-serif;font-size:11px;fill:#555">0.040 harmonic 2</text>
<line x1="70" y1="438" x2="300" y2="438" stroke="#333" stroke-width="2"/>
<text x="310" y="440" style="font-family:sans-serif;font-size:11px;fill:#555">0.200 pump (H10)</text>
<!-- MILL ENGINEERING -->
<rect x="60" y="540" width="560" height="100" rx="8" fill="none" stroke="#333" stroke-width="0.5" stroke-dasharray="6 3"/>
<text x="80" y="564" style="font-family:sans-serif;font-size:14px;font-weight:500;fill:#1a1a1a">Mill-engineering propulsion controls</text>
<text x="80" y="584" style="font-family:sans-serif;font-size:12px;fill:#555">Telescopic bridge: variable pump separation (short=torque, long=cruise)</text>
<text x="80" y="604" style="font-family:sans-serif;font-size:12px;fill:#555">Pneumatic governor: ratio adjusts to local substrate density (constant v)</text>
<text x="80" y="624" style="font-family:sans-serif;font-size:12px;fill:#555">Check valve: asymmetric energy flow (forward only, retention 2%→18%)</text>
<!-- BINARY STAR SPECS -->
<rect x="60" y="656" width="560" height="80" rx="8" fill="none" stroke="#333" stroke-width="0.5" stroke-dasharray="6 3"/>
<text x="80" y="678" style="font-family:sans-serif;font-size:14px;font-weight:500;fill:#1a1a1a">Engineering specs from binary star observations</text>
<text x="80" y="698" style="font-family:sans-serif;font-size:12px;fill:#555">Spica (8.4:1 ratio) = drive template | HR 1099 (14:1) = brake template</text>
<text x="80" y="718" style="font-family:sans-serif;font-size:12px;fill:#555">Alpha Centauri (3.5:1) = design limit | Coherence constant ζ = 2.8</text>
<!-- v2 note -->
<rect x="60" y="748" width="560" height="30" rx="4" fill="none" stroke="#333" stroke-width="0.5"/>
<text x="340" y="768" text-anchor="middle" style="font-family:sans-serif;font-size:12px;fill:#555">v2: 50-step lock, 5/35/10 asymmetric geometry, Brucetron markers, fractal arc writing</text>
<text x="340" y="804" text-anchor="middle" style="font-family:sans-serif;font-size:12px;fill:#555">Stephen Justin Burdick Sr. — Emerald Entities LLC — GIBUSH Systems</text>
</svg>
